<?xml version="1.0" standalone="no"?>
<!DOCTYPE svg PUBLIC "-//W3C//DTD SVG 20010904//EN"
 "http://www.w3.org/TR/2001/REC-SVG-20010904/DTD/svg10.dtd">
<svg version="1.0" xmlns="http://www.w3.org/2000/svg"
 width="499.000000pt" height="500.000000pt" viewBox="0 0 499.000000 500.000000"
 preserveAspectRatio="xMidYMid meet">

<g transform="translate(0.000000,500.000000) scale(0.100000,-0.100000)"
fill="#000000" stroke="none">
<path d="M2310 4985 c-364 -34 -641 -111 -935 -260 -627 -316 -1119 -920
-1280 -1573 -115 -464 -115 -817 0 -1307 39 -167 166 -461 276 -642 136 -222
373 -494 565 -646 410 -326 876 -506 1396 -539 302 -19 520 2 819 77 272 69
531 195 829 402 107 75 312 269 430 408 216 254 412 636 490 954 85 343 107
602 75 873 -56 477 -199 859 -457 1219 -333 468 -845 821 -1383 957 -305 77
-566 101 -825 77z m-141 -1532 c93 -186 262 -522 375 -747 114 -226 205 -414
203 -420 -2 -6 -93 -9 -233 -9 l-229 0 -38 69 c-21 38 -86 165 -144 282 -59
117 -111 211 -115 210 -4 -2 -115 -217 -246 -478 -131 -261 -289 -575 -350
-697 l-112 -222 -178 -3 c-97 -2 -205 -1 -239 2 l-63 5 211 420 c269 536 960
1908 966 1918 2 4 8 7 13 7 5 0 86 -152 179 -337z m1384 313 c242 -47 439
-196 543 -412 53 -110 74 -204 74 -333 0 -279 -153 -532 -400 -660 -44 -23
-80 -45 -80 -49 0 -4 28 -54 61 -112 94 -161 274 -471 355 -613 41 -70 74
-132 74 -137 0 -7 -85 -9 -241 -8 l-242 3 -96 162 c-95 162 -220 377 -337 581
-34 59 -102 179 -153 266 -53 92 -89 166 -86 174 5 13 30 14 173 9 201 -8 275
1 360 44 73 38 115 81 151 159 22 47 26 68 26 150 0 87 -3 100 -32 156 -39 74
-106 136 -182 166 -54 22 -69 23 -466 28 -363 4 -414 7 -441 22 -44 24 -87 69
-120 125 -15 26 -61 99 -101 161 -40 62 -73 117 -73 122 0 6 217 10 579 10
462 0 594 -3 654 -14z m-1166 -1718 l573 -191 61 -115 c120 -228 139 -265 139
-277 0 -10 -55 -14 -237 -17 l-238 -4 -35 25 c-19 14 -75 62 -124 106 -49 44
-110 98 -137 120 -26 22 -89 78 -141 124 -116 105 -213 190 -303 269 -155 135
-171 151 -150 152 11 0 277 -86 592 -192z"/>
</g>
</svg>
